<svg width="90" height="108" viewBox="0 0 90 108" fill="none" xmlns="http://www.w3.org/2000/svg">
<path d="M12.751 92.9512C12.751 94.0898 12.5075 95.0531 12.0205 95.8408C11.5407 96.6286 10.8818 97.223 10.0439 97.624C9.21322 98.0179 8.27865 98.2148 7.24023 98.2148C6.18034 98.2148 5.23503 98.0179 4.4043 97.624C3.58073 97.2301 2.93262 96.6393 2.45996 95.8516C1.9873 95.0566 1.75098 94.0898 1.75098 92.9512V82.3594H3.06152V92.9512C3.06152 93.8392 3.23698 94.5947 3.58789 95.2178C3.94596 95.8408 4.4401 96.3099 5.07031 96.625C5.70052 96.9401 6.42383 97.0977 7.24023 97.0977C8.0638 97.0977 8.79069 96.9401 9.4209 96.625C10.0511 96.3099 10.5417 95.8408 10.8926 95.2178C11.2507 94.5947 11.4297 93.8392 11.4297 92.9512V82.3594H12.751V92.9512ZM20.8398 82.3594C22.1289 82.3594 23.2783 82.653 24.2881 83.2402C25.305 83.8275 26.0964 84.6618 26.6621 85.7432C27.2279 86.8174 27.5107 88.0563 27.5107 89.46V90.8994C27.5107 92.3102 27.2279 93.5527 26.6621 94.627C26.0964 95.7012 25.3014 96.5319 24.2773 97.1191C23.2533 97.7064 22.0752 98 20.7432 98H17.1982H16.4678V82.3594H17.7891H20.8398ZM26.2002 89.4385C26.2002 88.2497 25.9782 87.2077 25.5342 86.3125C25.0902 85.4102 24.4635 84.7155 23.6543 84.2285C22.8451 83.7344 21.9069 83.4873 20.8398 83.4873H17.7891V96.8828H20.7432C21.846 96.8828 22.8092 96.6322 23.6328 96.1309C24.4564 95.6296 25.0902 94.9277 25.5342 94.0254C25.9782 93.123 26.2002 92.0811 26.2002 90.8994V89.4385ZM29.874 92.0166C29.874 90.8923 30.0889 89.8861 30.5186 88.998C30.9482 88.11 31.5534 87.4154 32.334 86.9141C33.1217 86.4128 34.0277 86.1621 35.0518 86.1621C36.083 86.1621 36.9925 86.4128 37.7803 86.9141C38.568 87.4154 39.1768 88.11 39.6064 88.998C40.0361 89.8861 40.251 90.8923 40.251 92.0166V92.3604C40.251 93.4847 40.0361 94.4909 39.6064 95.3789C39.1768 96.2669 38.5716 96.9616 37.791 97.4629C37.0104 97.9642 36.1045 98.2148 35.0732 98.2148C34.042 98.2148 33.1325 97.9642 32.3447 97.4629C31.557 96.9616 30.9482 96.2669 30.5186 95.3789C30.0889 94.4909 29.874 93.4847 29.874 92.3604V92.0166ZM31.1631 92.3604C31.1631 93.2269 31.3135 94.0218 31.6143 94.7451C31.9222 95.4684 32.3698 96.0449 32.957 96.4746C33.5514 96.9043 34.2568 97.1191 35.0732 97.1191C35.8825 97.1191 36.5807 96.9043 37.168 96.4746C37.7552 96.0449 38.1992 95.4684 38.5 94.7451C38.8079 94.0218 38.9619 93.2269 38.9619 92.3604V92.0166C38.9619 91.1644 38.8079 90.3766 38.5 89.6533C38.1921 88.93 37.7409 88.3499 37.1465 87.9131C36.5592 87.4762 35.861 87.2578 35.0518 87.2578C34.2425 87.2578 33.5443 87.4762 32.957 87.9131C32.3698 88.3499 31.9222 88.93 31.6143 89.6533C31.3135 90.3766 31.1631 91.1644 31.1631 92.0166V92.3604ZM55.3438 86.1621C56.5898 86.1621 57.5352 86.5059 58.1797 87.1934C58.8242 87.8809 59.1465 88.9587 59.1465 90.4268V98H57.8682V90.416C57.8682 89.263 57.6247 88.4502 57.1377 87.9775C56.6579 87.5049 55.9704 87.2686 55.0752 87.2686C54.3877 87.2686 53.7897 87.4225 53.2812 87.7305C52.7799 88.0312 52.3896 88.4144 52.1104 88.8799C51.8311 89.3454 51.6699 89.8216 51.627 90.3086V98H50.3379V90.3086C50.3379 89.2129 50.0908 88.4323 49.5967 87.9668C49.1097 87.5013 48.415 87.2686 47.5127 87.2686C46.6104 87.2686 45.8799 87.5264 45.3213 88.042C44.7699 88.5576 44.3724 89.2129 44.1289 90.0078V98H42.8398V86.377H44.0859L44.1182 88.2568C44.5192 87.598 45.0384 87.0859 45.6758 86.7207C46.3203 86.3483 47.0579 86.1621 47.8887 86.1621C48.7695 86.1621 49.5072 86.3447 50.1016 86.71C50.696 87.0752 51.1185 87.641 51.3691 88.4072C51.7559 87.7269 52.2894 87.1826 52.9697 86.7744C53.6572 86.3662 54.4486 86.1621 55.3438 86.1621ZM70.7803 95.5615C70.7803 95.9912 70.8089 96.4173 70.8662 96.8398C70.9307 97.2624 71.0202 97.6025 71.1348 97.8604V98H69.7598C69.6237 97.6204 69.5378 97.0798 69.502 96.3779C69.0794 96.9222 68.5316 97.3662 67.8584 97.71C67.1924 98.0465 66.4297 98.2148 65.5703 98.2148C64.8255 98.2148 64.1702 98.0752 63.6045 97.7959C63.0387 97.5094 62.5983 97.1156 62.2832 96.6143C61.9753 96.113 61.8213 95.5472 61.8213 94.917C61.8213 94.165 62.0326 93.5133 62.4551 92.9619C62.8848 92.4033 63.4971 91.9772 64.292 91.6836C65.0941 91.3828 66.0358 91.2324 67.1172 91.2324H69.4912V89.9219C69.4912 89.084 69.2298 88.4287 68.707 87.9561C68.1914 87.4762 67.4538 87.2363 66.4941 87.2363C65.9069 87.2363 65.3734 87.3438 64.8936 87.5586C64.4209 87.7663 64.0485 88.0492 63.7764 88.4072C63.5114 88.7653 63.3789 89.1592 63.3789 89.5889L62.0898 89.5781C62.0898 88.998 62.2796 88.4466 62.6592 87.9238C63.0387 87.3939 63.5687 86.9678 64.249 86.6455C64.9294 86.3232 65.6956 86.1621 66.5479 86.1621C67.3857 86.1621 68.1234 86.3053 68.7607 86.5918C69.3981 86.8711 69.8923 87.2936 70.2432 87.8594C70.6012 88.4251 70.7803 89.1198 70.7803 89.9434V95.5615ZM65.71 97.0762C66.6051 97.0762 67.3857 96.8649 68.0518 96.4424C68.7178 96.0127 69.1976 95.4613 69.4912 94.7881V92.2207H67.2891C66.4154 92.2207 65.6634 92.3245 65.0332 92.5322C64.4102 92.7399 63.9303 93.0371 63.5938 93.4238C63.2643 93.8105 63.0996 94.2725 63.0996 94.8096C63.0996 95.2321 63.207 95.6152 63.4219 95.959C63.6367 96.3027 63.9411 96.5749 64.335 96.7754C64.7288 96.9759 65.1872 97.0762 65.71 97.0762ZM75.0127 82.1445C75.2848 82.1445 75.4997 82.2269 75.6572 82.3916C75.8219 82.5563 75.9043 82.764 75.9043 83.0146C75.9043 83.2581 75.8219 83.4622 75.6572 83.627C75.4997 83.7845 75.2848 83.8633 75.0127 83.8633C74.7477 83.8633 74.5329 83.7845 74.3682 83.627C74.2106 83.4622 74.1318 83.2581 74.1318 83.0146C74.1318 82.764 74.2106 82.5563 74.3682 82.3916C74.5329 82.2269 74.7477 82.1445 75.0127 82.1445ZM74.3682 98V86.377H75.6465V98H74.3682ZM84.2188 86.1621C85.4219 86.1621 86.3385 86.5023 86.9688 87.1826C87.6061 87.863 87.9248 88.9443 87.9248 90.4268V98H86.6357V90.4268C86.6357 89.2809 86.403 88.4681 85.9375 87.9883C85.472 87.5085 84.7917 87.2686 83.8965 87.2686C83.0586 87.2686 82.3424 87.5335 81.748 88.0635C81.1536 88.5863 80.7168 89.238 80.4375 90.0186V98H79.1484V86.377H80.3838L80.4268 88.3428C80.8421 87.6624 81.3757 87.1289 82.0273 86.7422C82.679 86.3555 83.4095 86.1621 84.2188 86.1621Z" fill="white"/>
<path d="M5.46597 10.8091C3.03407 7.69747 3 0 3 0C3 0 10.7176 1.79011 13.1521 4.90174C15.5867 8.01338 15.3325 15.774 15.3325 15.774C15.3325 15.774 7.90311 13.9234 5.46597 10.8091Z" fill="#47B549"/>
<path d="M85.051 28.7999C84.4401 26.1489 83.4869 23.5894 82.2155 21.1867C81.104 19.1018 79.7077 17.1834 78.0671 15.4873C77.1185 14.4851 76.0798 13.573 74.9644 12.7626C73.6627 11.8346 72.255 11.0666 70.7714 10.475C68.9812 9.75284 67.1198 9.22338 65.2184 8.89544C62.7669 8.48808 60.2842 8.29956 57.7996 8.33208H38.5802V39.7222C38.4118 41.3693 38.0602 42.9923 37.532 44.5608C36.6584 47.009 35.4399 48.7965 33.8763 49.9232C32.2714 51.0292 30.3701 51.6196 28.4239 51.6163C26.4777 51.613 24.5784 51.0162 22.9773 49.9048C21.4224 48.7622 20.2099 46.9599 19.3399 44.4976C18.4699 42.0353 18.0331 38.9193 18.0296 35.1495V30.3926H18.0139V15.7689H15.8388C15.8388 26.1963 4.23486 30.3926 4.23486 30.3926V39.6064C4.23486 45.9613 5.46916 51.1201 7.93775 55.0829C10.4063 59.0457 13.4768 61.8538 17.1491 63.507C20.7064 65.1345 24.569 65.9791 28.4779 65.9842C31.3123 65.976 34.1289 65.5321 36.8297 64.6679C39.6882 63.7472 42.3401 62.2744 44.6364 60.3322C47.0491 58.3262 48.9892 55.5954 50.4567 52.1398C51.9242 48.6842 52.6571 44.509 52.6553 39.6143V19.8967H58.4599C60.5812 19.9028 62.6776 20.3566 64.6131 21.2288C66.6257 22.1168 68.3483 23.8718 69.7809 26.4938C71.2134 29.1158 71.9262 32.7697 71.9193 37.4556C71.9193 44.1983 70.5854 48.6508 67.9176 50.813C65.2499 52.9752 62.0929 54.0571 58.4468 54.0589H52.7313C52.7313 54.0589 49.1202 62.4013 40.0792 65.9789L52.0893 66H63.5334C69.4926 66 74.1284 64.3775 77.4408 61.1324C79.7731 58.9141 81.8015 56.0183 83.5258 52.4451C85.2501 48.8719 86.1115 44.1281 86.1097 38.2138C86.1335 35.0445 85.7781 31.8839 85.051 28.7999Z" fill="white"/>
</svg>
